<?xml version="1.0" encoding="UTF-8" standalone="no" ?>
<!DOCTYPE svg PUBLIC "-//W3C//DTD SVG 1.1//EN" "http://www.w3.org/Graphics/SVG/1.1/DTD/svg11.dtd">
<svg xmlns="http://www.w3.org/2000/svg" xmlns:xlink="http://www.w3.org/1999/xlink" version="1.1" width="600" height="600" viewBox="-360 -360 600 600" xml:space="preserve">
<desc>Created with Fabric.js 5.2.4</desc>
<defs>
</defs>
<g transform="matrix(1 0 0 1 300 300)" id="ad6d1189-f151-4303-a072-05fa8c5d75ad"  >
<rect style="stroke: none; stroke-width: 1; stroke-dasharray: none; stroke-linecap: butt; stroke-dashoffset: 0; stroke-linejoin: miter; stroke-miterlimit: 4; fill: rgb(255,255,255); fill-rule: nonzero; opacity: 1; visibility: hidden;" vector-effect="non-scaling-stroke"  x="-300" y="-300" rx="0" ry="0" width="600" height="600" />
</g>
<g transform="matrix(Infinity NaN NaN Infinity 0 0)" id="3d61a5e5-5319-4c56-9cb5-a3c6397f1a01"  >
</g>
<g transform="matrix(0.56 0 0 0.56 -73.89 -81.44)"  >
<g style="" vector-effect="non-scaling-stroke"   >
		<g transform="matrix(0.13 0 0 -0.13 274.59 -45.87)"  >
<path style="stroke: none; stroke-width: 1; stroke-dasharray: none; stroke-linecap: butt; stroke-dashoffset: 0; stroke-linejoin: miter; stroke-miterlimit: 4; fill: rgb(0,0,0); fill-rule: nonzero; opacity: 1;" vector-effect="non-scaling-stroke"  transform=" translate(-12059.4, -2308.81)" d="M 12153 3920 C 11661 3884 11244 3750 10890 3516 C 10767 3435 10584 3257 10531 3168 C 10455 3037 10413 2878 10424 2760 C 10438 2600 10572 2443 10720 2413 L 10755 2407 L 10711 2456 C 10635 2543 10625 2570 10625 2695 C 10626 2831 10651 2909 10734 3033 C 10943 3348 11506 3652 12070 3754 C 12492 3831 12998 3806 13269 3696 C 13411 3638 13601 3478 13721 3315 C 13789 3223 13862 3068 13892 2955 C 13924 2830 13924 2585 13891 2433 C 13833 2159 13706 1890 13514 1635 C 13428 1520 13267 1353 13165 1274 C 12803 992 12345 830 11797 790 C 11507 770 11270 819 11088 939 C 11016 986 10860 1140 10860 1164 C 10860 1171 10911 1223 10974 1278 C 11246 1521 11519 1827 11813 2219 C 11907 2343 12003 2470 12028 2500 C 12240 2763 12694 3205 12875 3325 C 12903 3343 12942 3361 12962 3365 C 13046 3381 13085 3431 13060 3491 C 13019 3590 12818 3614 12665 3539 C 12498 3457 12212 3146 11732 2525 C 11346 2025 11098 1718 10882 1472 L 10765 1340 L 10752 1370 C 10726 1434 10688 1582 10645 1792 C 10575 2129 10545 2200 10470 2200 C 10417 2200 10328 2127 10262 2029 C 10159 1875 10008 1502 9954 1265 C 9926 1145 9929 983 9960 905 C 9989 829 10042 774 10095 764 C 10203 744 10392 829 10638 1007 L 10732 1075 L 10819 990 C 10985 828 11197 734 11473 700 C 11615 682 12006 692 12175 718 C 12539 774 12893 890 13154 1037 C 13348 1146 13469 1238 13626 1395 C 13848 1615 14021 1887 14113 2160 C 14173 2336 14185 2413 14184 2605 C 14183 2754 14180 2787 14158 2871 C 14074 3185 13875 3451 13577 3651 C 13408 3764 13259 3822 13022 3865 C 12742 3917 12402 3939 12153 3920 z M 10440 1737 C 10457 1590 10484 1510 10565 1353 L 10639 1211 L 10551 1130 C 10395 987 10187 841 10157 853 C 10117 868 10088 1098 10109 1227 C 10137 1394 10229 1612 10356 1808 L 10415 1900 L 10422 1867 C 10425 1850 10434 1791 10440 1737 z" stroke-linecap="round" />
</g>
		<g transform="matrix(0.13 0 0 -0.13 -1031.14 -26.23)"  >
<path style="stroke: none; stroke-width: 1; stroke-dasharray: none; stroke-linecap: butt; stroke-dashoffset: 0; stroke-linejoin: miter; stroke-miterlimit: 4; fill: rgb(0,0,0); fill-rule: nonzero; opacity: 1;" vector-effect="non-scaling-stroke"  transform=" translate(-2266.42, -2161.56)" d="M 2704 3869 C 2045 3819 1455 3584 1046 3209 C 791 2975 626 2658 625 2398 C 625 2305 626 2301 656 2263 C 723 2179 907 2149 1129 2184 C 1502 2243 1869 2498 1970 2768 C 2009 2870 1958 2861 1887 2752 C 1833 2670 1750 2585 1646 2508 C 1437 2352 1254 2280 1067 2280 C 999 2280 975 2284 934 2305 C 862 2341 845 2375 845 2480 C 847 2833 1123 3148 1671 3424 C 2254 3717 2857 3829 3440 3754 C 3882 3697 4166 3515 4220 3256 C 4263 3050 4115 2783 3872 2626 C 3669 2494 3408 2425 3020 2400 C 2863 2389 2590 2395 2590 2409 C 2590 2412 2648 2492 2718 2586 C 3041 3017 3242 3220 3321 3195 C 3348 3186 3354 3148 3335 3110 C 3316 3073 3321 3050 3348 3050 C 3411 3050 3443 3207 3390 3255 C 3356 3285 3282 3286 3224 3257 C 3103 3196 2955 3058 2673 2745 C 2544 2602 2433 2481 2426 2476 C 2419 2471 2396 2479 2365 2498 C 2288 2545 2234 2555 2167 2536 C 2074 2509 2022 2435 2053 2371 C 2074 2327 2112 2315 2189 2330 C 2239 2339 2262 2339 2284 2331 L 2313 2319 L 2278 2282 C 2258 2262 2187 2173 2119 2085 C 1608 1421 1197 1019 848 844 C 678 759 507 729 360 761 C 293 775 222 825 196 875 C 168 930 163 1031 185 1106 C 226 1249 349 1433 478 1548 C 587 1644 622 1682 613 1691 C 599 1705 516 1680 463 1645 C 298 1536 99 1244 55 1045 C 4 816 81 673 278 631 C 353 615 542 617 643 635 C 1045 705 1407 957 1822 1456 C 1929 1586 2250 1994 2317 2085 L 2338 2114 L 2345 2055 C 2356 1961 2397 1783 2455 1581 C 2653 892 2810 600 3047 483 C 3120 447 3129 445 3219 445 C 3304 445 3322 448 3372 473 C 3450 511 3523 581 3599 687 C 3714 848 3750 947 3731 1042 C 3708 1151 3676 1143 3634 1017 C 3620 972 3587 896 3563 848 C 3482 689 3399 622 3295 633 C 3225 640 3174 668 3098 739 C 3018 814 2934 931 2865 1063 C 2790 1205 2775 1249 2645 1689 C 2582 1901 2519 2115 2505 2163 C 2490 2212 2480 2254 2483 2256 C 2486 2259 2517 2256 2551 2250 C 2648 2232 2893 2223 3063 2231 C 3472 2251 3896 2372 4145 2540 C 4236 2602 4358 2730 4405 2814 C 4473 2935 4493 3010 4493 3135 C 4494 3227 4490 3255 4470 3305 C 4424 3424 4360 3506 4247 3591 C 4037 3749 3747 3836 3316 3870 C 3171 3881 2856 3881 2704 3869 z" stroke-linecap="round" />
</g>
		<g transform="matrix(0.13 0 0 -0.13 -206.37 -20.03)"  >
<path style="stroke: none; stroke-width: 1; stroke-dasharray: none; stroke-linecap: butt; stroke-dashoffset: 0; stroke-linejoin: miter; stroke-miterlimit: 4; fill: rgb(0,0,0); fill-rule: nonzero; opacity: 1;" vector-effect="non-scaling-stroke"  transform=" translate(-8452.18, -2115.02)" d="M 9914 3264 C 9747 3175 9517 2883 9180 2330 C 9063 2139 8946 1931 8881 1802 C 8834 1708 8748 1605 8542 1397 C 8333 1185 8197 1091 8094 1087 C 8054 1085 8045 1089 8020 1117 C 7925 1223 7992 1393 8327 1900 C 8437 2068 8535 2220 8545 2239 C 8561 2271 8561 2274 8543 2299 C 8532 2313 8508 2336 8489 2348 C 8460 2368 8446 2371 8399 2367 L 8343 2362 L 8325 2412 C 8287 2519 8222 2556 8080 2553 C 7820 2547 7527 2381 7210 2060 C 6834 1679 6679 1335 6789 1123 C 6844 1016 7001 932 7124 942 C 7225 951 7380 1053 7575 1239 C 7636 1297 7710 1369 7741 1398 L 7798 1452 L 7793 1348 C 7788 1264 7791 1231 7805 1186 C 7838 1081 7944 994 8053 983 C 8195 968 8430 1122 8655 1377 C 8699 1427 8736 1467 8737 1466 C 8739 1465 8733 1432 8725 1394 C 8708 1313 8706 1210 8720 1158 C 8747 1060 8853 983 8991 960 C 9163 931 9333 996 9556 1176 C 9663 1263 9887 1490 9983 1610 C 10053 1698 10064 1732 10024 1738 C 10008 1740 9984 1720 9929 1658 C 9593 1277 9278 1060 9062 1060 C 9013 1060 8986 1065 8963 1080 C 8914 1109 8907 1132 8913 1234 C 8922 1393 8982 1522 9198 1854 C 9401 2165 9473 2268 9837 2757 C 10009 2989 10150 3183 10150 3188 C 10150 3207 10107 3251 10069 3270 C 10017 3297 9973 3295 9914 3264 z M 8270 2354 C 8287 2339 8299 2322 8297 2315 C 8288 2294 7808 1637 7741 1555 C 7513 1278 7312 1106 7163 1060 C 7075 1033 7038 1034 7001 1066 C 6917 1136 6939 1322 7054 1513 C 7213 1780 7649 2179 7924 2311 C 8030 2362 8088 2378 8172 2379 C 8230 2380 8242 2377 8270 2354 z" stroke-linecap="round" />
</g>
		<g transform="matrix(0.13 0 0 -0.13 937.92 -100.91)"  >
<path style="stroke: none; stroke-width: 1; stroke-dasharray: none; stroke-linecap: butt; stroke-dashoffset: 0; stroke-linejoin: miter; stroke-miterlimit: 4; fill: rgb(0,0,0); fill-rule: nonzero; opacity: 1;" vector-effect="non-scaling-stroke"  transform=" translate(-17034.37, -2721.62)" d="M 16931 2856 C 16823 2817 16821 2680 16927 2607 C 16996 2560 17082 2562 17155 2612 C 17198 2641 17220 2679 17220 2726 C 17220 2757 17213 2770 17177 2804 C 17113 2866 17015 2887 16931 2856 z" stroke-linecap="round" />
</g>
		<g transform="matrix(0.13 0 0 -0.13 854.22 10.87)"  >
<path style="stroke: none; stroke-width: 1; stroke-dasharray: none; stroke-linecap: butt; stroke-dashoffset: 0; stroke-linejoin: miter; stroke-miterlimit: 4; fill: rgb(0,0,0); fill-rule: nonzero; opacity: 1;" vector-effect="non-scaling-stroke"  transform=" translate(-16406.61, -1883.25)" d="M 15032 2849 C 14957 2827 14887 2721 14826 2538 C 14763 2347 14594 2091 14291 1730 C 14185 1604 14135 1526 14146 1508 C 14176 1460 14322 1617 14674 2075 C 14871 2331 14852 2308 14857 2293 C 14867 2266 14917 2200 14944 2179 C 14964 2163 14991 2155 15032 2152 C 15064 2149 15090 2146 15090 2144 C 15090 2142 15065 2103 15035 2056 C 14968 1954 14861 1734 14826 1629 C 14750 1402 14756 1177 14840 1061 C 14904 973 15010 933 15155 943 C 15343 955 15603 1096 15869 1331 C 15948 1401 15972 1417 15967 1399 C 15916 1214 15944 1023 16031 958 C 16085 917 16133 907 16229 913 C 16447 929 16651 1053 16956 1355 C 17046 1444 17120 1517 17120 1516 C 17120 1515 17102 1460 17080 1395 C 17026 1236 16997 1122 17004 1095 C 17019 1035 17164 943 17227 953 C 17321 969 17583 1126 17795 1295 C 18176 1598 18474 1920 18590 2155 C 18652 2280 18673 2368 18668 2475 C 18661 2612 18596 2715 18482 2767 C 18412 2800 18320 2809 18297 2785 C 18267 2755 18274 2745 18376 2680 C 18475 2616 18519 2536 18520 2420 C 18521 2145 18292 1853 17750 1440 C 17687 1392 17595 1326 17545 1293 C 17457 1234 17321 1160 17300 1160 C 17274 1160 17302 1280 17375 1475 C 17396 1530 17486 1748 17576 1958 L 17739 2342 L 17724 2378 C 17677 2491 17569 2520 17509 2437 C 17465 2376 17381 2195 17296 1980 C 17193 1717 17203 1737 17103 1619 C 16947 1438 16801 1310 16585 1167 C 16307 983 16184 959 16134 1077 C 16102 1153 16125 1269 16197 1399 C 16274 1537 16451 1784 16707 2108 C 16769 2187 16820 2259 16820 2269 C 16820 2305 16717 2370 16660 2370 C 16536 2370 16327 2129 16115 1743 C 16066 1654 16033 1608 15973 1547 C 15694 1261 15392 1073 15182 1054 C 15019 1039 14941 1109 14940 1271 C 14940 1454 15034 1625 15368 2047 C 15480 2188 15560 2297 15560 2310 C 15560 2321 15542 2350 15521 2373 C 15466 2431 15431 2430 15327 2366 C 15222 2301 15163 2280 15089 2280 C 15005 2280 14950 2313 14950 2363 C 14950 2371 14989 2428 15036 2491 C 15156 2650 15190 2722 15175 2790 C 15164 2841 15097 2868 15032 2849 z" stroke-linecap="round" />
</g>
		<g transform="matrix(0.13 0 0 -0.13 -730.85 27.43)"  >
<path style="stroke: none; stroke-width: 1; stroke-dasharray: none; stroke-linecap: butt; stroke-dashoffset: 0; stroke-linejoin: miter; stroke-miterlimit: 4; fill: rgb(0,0,0); fill-rule: nonzero; opacity: 1;" vector-effect="non-scaling-stroke"  transform=" translate(-4518.58, -1759.07)" d="M 4685 2557 C 4490 2492 4195 2204 3941 1830 C 3712 1493 3656 1277 3752 1098 C 3790 1026 3846 975 3902 959 C 3967 942 4093 953 4167 983 C 4337 1052 4529 1230 4750 1525 C 4896 1720 4970 1863 4970 1954 L 4970 1996 L 5048 2030 C 5197 2095 5330 2179 5330 2209 C 5330 2214 5293 2202 5248 2182 C 5175 2151 5154 2147 5080 2146 C 5000 2145 4995 2146 4998 2165 C 5000 2176 5004 2235 5006 2295 C 5011 2401 5011 2407 4983 2460 C 4946 2533 4895 2562 4796 2567 C 4755 2568 4708 2564 4685 2557 z M 4704 2144 C 4725 2113 4766 2063 4797 2031 C 4848 1978 4851 1973 4846 1935 C 4834 1838 4673 1596 4487 1392 C 4329 1219 4214 1134 4098 1103 C 3992 1075 3948 1105 3930 1214 C 3917 1297 3931 1359 3995 1485 C 4106 1705 4374 2037 4524 2140 C 4564 2167 4631 2196 4661 2199 C 4664 2200 4684 2175 4704 2144 z" stroke-linecap="round" />
</g>
		<g transform="matrix(0.13 0 0 -0.13 1218.85 39.3)"  >
<path style="stroke: none; stroke-width: 1; stroke-dasharray: none; stroke-linecap: butt; stroke-dashoffset: 0; stroke-linejoin: miter; stroke-miterlimit: 4; fill: rgb(0,0,0); fill-rule: nonzero; opacity: 1;" vector-effect="non-scaling-stroke"  transform=" translate(-19141.37, -1670.09)" d="M 19333 2420 C 19149 2372 18965 2246 18744 2018 C 18484 1749 18345 1512 18325 1304 C 18306 1114 18394 990 18595 925 C 18669 901 18690 898 18755 903 C 18940 919 19171 1037 19445 1257 C 19626 1402 19895 1683 19945 1780 C 19968 1824 19965 1850 19936 1850 C 19906 1850 19890 1836 19798 1725 C 19653 1552 19405 1325 19195 1175 C 19101 1108 18938 1027 18861 1010 C 18731 980 18611 1020 18570 1106 C 18528 1192 18536 1348 18588 1463 L 18605 1501 L 18700 1505 C 18828 1509 18937 1542 19125 1635 C 19313 1727 19435 1807 19535 1901 C 19658 2018 19711 2116 19711 2231 C 19712 2300 19694 2336 19640 2383 C 19570 2442 19466 2455 19333 2420 z M 19581 2279 C 19607 2253 19603 2232 19554 2131 C 19475 1970 19235 1774 18979 1663 C 18879 1620 18753 1593 18711 1606 L 18681 1615 L 18748 1710 C 18828 1824 19079 2079 19200 2169 C 19325 2263 19408 2300 19492 2300 C 19548 2300 19564 2296 19581 2279 z" stroke-linecap="round" />
</g>
		<g transform="matrix(0.13 0 0 -0.13 -549.82 105.23)"  >
<path style="stroke: none; stroke-width: 1; stroke-dasharray: none; stroke-linecap: butt; stroke-dashoffset: 0; stroke-linejoin: miter; stroke-miterlimit: 4; fill: rgb(0,0,0); fill-rule: nonzero; opacity: 1;" vector-effect="non-scaling-stroke"  transform=" translate(-5876.31, -1175.58)" d="M 5729 2323 C 5602 2260 5340 1960 5145 1655 C 4946 1344 4915 1173 5037 1058 C 5105 993 5198 984 5327 1029 C 5476 1081 5566 1143 6095 1558 C 6249 1679 6376 1777 6378 1776 C 6385 1769 6195 1327 6110 1155 C 5921 770 5771 541 5585 354 C 5481 249 5454 228 5378 190 C 5261 132 5180 125 5095 164 C 5040 189 4908 287 4892 315 C 4878 340 4808 412 4804 407 C 4801 404 4803 376 4809 343 C 4826 251 4871 170 4945 101 C 5056 -2 5173 -22 5350 32 C 5569 100 5792 300 6010 625 C 6073 719 6248 1030 6445 1400 C 6494 1491 6604 1671 6690 1800 C 6921 2147 6950 2195 6950 2233 C 6950 2322 6832 2347 6727 2280 C 6700 2263 6644 2204 6587 2133 C 6463 1978 6320 1848 5961 1561 C 5636 1301 5430 1164 5303 1121 C 5229 1096 5202 1095 5172 1116 C 5156 1127 5150 1141 5150 1169 C 5150 1278 5272 1448 5629 1835 C 5895 2124 5970 2216 5970 2255 C 5970 2340 5839 2377 5729 2323 z" stroke-linecap="round" />
</g>
</g>
</g>
</svg>