<?xml version="1.0" standalone="no"?>
<!DOCTYPE svg PUBLIC "-//W3C//DTD SVG 20010904//EN"
 "http://www.w3.org/TR/2001/REC-SVG-20010904/DTD/svg10.dtd">
<svg version="1.0" xmlns="http://www.w3.org/2000/svg"
 width="2000.000000pt" height="393.000000pt" viewBox="0 0 2000.000000 393.000000"
 preserveAspectRatio="xMidYMid meet">

<g transform="translate(0.000000,393.000000) scale(0.100000,-0.100000)"
fill="#000000" stroke="none">
<path d="M12153 3920 c-492 -36 -909 -170 -1263 -404 -123 -81 -306 -259 -359
-348 -76 -131 -118 -290 -107 -408 14 -160 148 -317 296 -347 l35 -6 -44 49
c-76 87 -86 114 -86 239 1 136 26 214 109 338 209 315 772 619 1336 721 422
77 928 52 1199 -58 142 -58 332 -218 452 -381 68 -92 141 -247 171 -360 32
-125 32 -370 -1 -522 -58 -274 -185 -543 -377 -798 -86 -115 -247 -282 -349
-361 -362 -282 -820 -444 -1368 -484 -290 -20 -527 29 -709 149 -72 47 -228
201 -228 225 0 7 51 59 114 114 272 243 545 549 839 941 94 124 190 251 215
281 212 263 666 705 847 825 28 18 67 36 87 40 84 16 123 66 98 126 -41 99
-242 123 -395 48 -167 -82 -453 -393 -933 -1014 -386 -500 -634 -807 -850
-1053 l-117 -132 -13 30 c-26 64 -64 212 -107 422 -70 337 -100 408 -175 408
-53 0 -142 -73 -208 -171 -103 -154 -254 -527 -308 -764 -28 -120 -25 -282 6
-360 29 -76 82 -131 135 -141 108 -20 297 65 543 243 l94 68 87 -85 c166 -162
378 -256 654 -290 142 -18 533 -8 702 18 364 56 718 172 979 319 194 109 315
201 472 358 222 220 395 492 487 765 60 176 72 253 71 445 -1 149 -4 182 -26
266 -84 314 -283 580 -581 780 -169 113 -318 171 -555 214 -280 52 -620 74
-869 55z m-1713 -2183 c17 -147 44 -227 125 -384 l74 -142 -88 -81 c-156 -143
-364 -289 -394 -277 -40 15 -69 245 -48 374 28 167 120 385 247 581 l59 92 7
-33 c3 -17 12 -76 18 -130z"/>
<path d="M2704 3869 c-659 -50 -1249 -285 -1658 -660 -255 -234 -420 -551
-421 -811 0 -93 1 -97 31 -135 67 -84 251 -114 473 -79 373 59 740 314 841
584 39 102 -12 93 -83 -16 -54 -82 -137 -167 -241 -244 -209 -156 -392 -228
-579 -228 -68 0 -92 4 -133 25 -72 36 -89 70 -89 175 2 353 278 668 826 944
583 293 1186 405 1769 330 442 -57 726 -239 780 -498 43 -206 -105 -473 -348
-630 -203 -132 -464 -201 -852 -226 -157 -11 -430 -5 -430 9 0 3 58 83 128
177 323 431 524 634 603 609 27 -9 33 -47 14 -85 -19 -37 -14 -60 13 -60 63 0
95 157 42 205 -34 30 -108 31 -166 2 -121 -61 -269 -199 -551 -512 -129 -143
-240 -264 -247 -269 -7 -5 -30 3 -61 22 -77 47 -131 57 -198 38 -93 -27 -145
-101 -114 -165 21 -44 59 -56 136 -41 50 9 73 9 95 1 l29 -12 -35 -37 c-20
-20 -91 -109 -159 -197 -511 -664 -922 -1066 -1271 -1241 -170 -85 -341 -115
-488 -83 -67 14 -138 64 -164 114 -28 55 -33 156 -11 231 41 143 164 327 293
442 109 96 144 134 135 143 -14 14 -97 -11 -150 -46 -165 -109 -364 -401 -408
-600 -51 -229 26 -372 223 -414 75 -16 264 -14 365 4 402 70 764 322 1179 821
107 130 428 538 495 629 l21 29 7 -59 c11 -94 52 -272 110 -474 198 -689 355
-981 592 -1098 73 -36 82 -38 172 -38 85 0 103 3 153 28 78 38 151 108 227
214 115 161 151 260 132 355 -23 109 -55 101 -97 -25 -14 -45 -47 -121 -71
-169 -81 -159 -164 -226 -268 -215 -70 7 -121 35 -197 106 -80 75 -164 192
-233 324 -75 142 -90 186 -220 626 -63 212 -126 426 -140 474 -15 49 -25 91
-22 93 3 3 34 0 68 -6 97 -18 342 -27 512 -19 409 20 833 141 1082 309 91 62
213 190 260 274 68 121 88 196 88 321 1 92 -3 120 -23 170 -46 119 -110 201
-223 286 -210 158 -500 245 -931 279 -145 11 -460 11 -612 -1z"/>
<path d="M9914 3264 c-167 -89 -397 -381 -734 -934 -117 -191 -234 -399 -299
-528 -47 -94 -133 -197 -339 -405 -209 -212 -345 -306 -448 -310 -40 -2 -49 2
-74 30 -95 106 -28 276 307 783 110 168 208 320 218 339 16 32 16 35 -2 60
-11 14 -35 37 -54 49 -29 20 -43 23 -90 19 l-56 -5 -18 50 c-38 107 -103 144
-245 141 -260 -6 -553 -172 -870 -493 -376 -381 -531 -725 -421 -937 55 -107
212 -191 335 -181 101 9 256 111 451 297 61 58 135 130 166 159 l57 54 -5
-104 c-5 -84 -2 -117 12 -162 33 -105 139 -192 248 -203 142 -15 377 139 602
394 44 50 81 90 82 89 2 -1 -4 -34 -12 -72 -17 -81 -19 -184 -5 -236 27 -98
133 -175 271 -198 172 -29 342 36 565 216 107 87 331 314 427 434 70 88 81
122 41 128 -16 2 -40 -18 -95 -80 -336 -381 -651 -598 -867 -598 -49 0 -76 5
-99 20 -49 29 -56 52 -50 154 9 159 69 288 285 620 203 311 275 414 639 903
172 232 313 426 313 431 0 19 -43 63 -81 82 -52 27 -96 25 -155 -6z m-1644
-910 c17 -15 29 -32 27 -39 -9 -21 -489 -678 -556 -760 -228 -277 -429 -449
-578 -495 -88 -27 -125 -26 -162 6 -84 70 -62 256 53 447 159 267 595 666 870
798 106 51 164 67 248 68 58 1 70 -2 98 -25z"/>
<path d="M16931 2856 c-108 -39 -110 -176 -4 -249 69 -47 155 -45 228 5 43 29
65 67 65 114 0 31 -7 44 -43 78 -64 62 -162 83 -246 52z"/>
<path d="M15032 2849 c-75 -22 -145 -128 -206 -311 -63 -191 -232 -447 -535
-808 -106 -126 -156 -204 -145 -222 30 -48 176 109 528 567 197 256 178 233
183 218 10 -27 60 -93 87 -114 20 -16 47 -24 88 -27 32 -3 58 -6 58 -8 0 -2
-25 -41 -55 -88 -67 -102 -174 -322 -209 -427 -76 -227 -70 -452 14 -568 64
-88 170 -128 315 -118 188 12 448 153 714 388 79 70 103 86 98 68 -51 -185
-23 -376 64 -441 54 -41 102 -51 198 -45 218 16 422 140 727 442 90 89 164
162 164 161 0 -1 -18 -56 -40 -121 -54 -159 -83 -273 -76 -300 15 -60 160
-152 223 -142 94 16 356 173 568 342 381 303 679 625 795 860 62 125 83 213
78 320 -7 137 -72 240 -186 292 -70 33 -162 42 -185 18 -30 -30 -23 -40 79
-105 99 -64 143 -144 144 -260 1 -275 -228 -567 -770 -980 -63 -48 -155 -114
-205 -147 -88 -59 -224 -133 -245 -133 -26 0 2 120 75 315 21 55 111 273 201
483 l163 384 -15 36 c-47 113 -155 142 -215 59 -44 -61 -128 -242 -213 -457
-103 -263 -93 -243 -193 -361 -156 -181 -302 -309 -518 -452 -278 -184 -401
-208 -451 -90 -32 76 -9 192 63 322 77 138 254 385 510 709 62 79 113 151 113
161 0 36 -103 101 -160 101 -124 0 -333 -241 -545 -627 -49 -89 -82 -135 -142
-196 -279 -286 -581 -474 -791 -493 -163 -15 -241 55 -242 217 0 183 94 354
428 776 112 141 192 250 192 263 0 11 -18 40 -39 63 -55 58 -90 57 -194 -7
-105 -65 -164 -86 -238 -86 -84 0 -139 33 -139 83 0 8 39 65 86 128 120 159
154 231 139 299 -11 51 -78 78 -143 59z"/>
<path d="M4685 2557 c-195 -65 -490 -353 -744 -727 -229 -337 -285 -553 -189
-732 38 -72 94 -123 150 -139 65 -17 191 -6 265 24 170 69 362 247 583 542
146 195 220 338 220 429 l0 42 78 34 c149 65 282 149 282 179 0 5 -37 -7 -82
-27 -73 -31 -94 -35 -168 -36 -80 -1 -85 0 -82 19 2 11 6 70 8 130 5 106 5
112 -23 165 -37 73 -88 102 -187 107 -41 1 -88 -3 -111 -10z m19 -413 c21 -31
62 -81 93 -113 51 -53 54 -58 49 -96 -12 -97 -173 -339 -359 -543 -158 -173
-273 -258 -389 -289 -106 -28 -150 2 -168 111 -13 83 1 145 65 271 111 220
379 552 529 655 40 27 107 56 137 59 3 1 23 -24 43 -55z"/>
<path d="M19333 2420 c-184 -48 -368 -174 -589 -402 -260 -269 -399 -506 -419
-714 -19 -190 69 -314 270 -379 74 -24 95 -27 160 -22 185 16 416 134 690 354
181 145 450 426 500 523 23 44 20 70 -9 70 -30 0 -46 -14 -138 -125 -145 -173
-393 -400 -603 -550 -94 -67 -257 -148 -334 -165 -130 -30 -250 10 -291 96
-42 86 -34 242 18 357 l17 38 95 4 c128 4 237 37 425 130 188 92 310 172 410
266 123 117 176 215 176 330 1 69 -17 105 -71 152 -70 59 -174 72 -307 37z
m248 -141 c26 -26 22 -47 -27 -148 -79 -161 -319 -357 -575 -468 -100 -43
-226 -70 -268 -57 l-30 9 67 95 c80 114 331 369 452 459 125 94 208 131 292
131 56 0 72 -4 89 -21z"/>
<path d="M5729 2323 c-127 -63 -389 -363 -584 -668 -199 -311 -230 -482 -108
-597 68 -65 161 -74 290 -29 149 52 239 114 768 529 154 121 281 219 283 218
7 -7 -183 -449 -268 -621 -189 -385 -339 -614 -525 -801 -104 -105 -131 -126
-207 -164 -117 -58 -198 -65 -283 -26 -55 25 -187 123 -203 151 -14 25 -84 97
-88 92 -3 -3 -1 -31 5 -64 17 -92 62 -173 136 -242 111 -103 228 -123 405 -69
219 68 442 268 660 593 63 94 238 405 435 775 49 91 159 271 245 400 231 347
260 395 260 433 0 89 -118 114 -223 47 -27 -17 -83 -76 -140 -147 -124 -155
-267 -285 -626 -572 -325 -260 -531 -397 -658 -440 -74 -25 -101 -26 -131 -5
-16 11 -22 25 -22 53 0 109 122 279 479 666 266 289 341 381 341 420 0 85
-131 122 -241 68z"/>
</g>
</svg>
